<svg id="Layer_1" data-name="Layer 1" xmlns="http://www.w3.org/2000/svg" viewBox="0 0 322.5 210.49"><defs><style>.cls-1{fill:#fbb040;}.cls-2{fill:#d1d3d4;}</style></defs><title>Chart-icon</title><rect class="cls-1" x="271.56" y="68.56" width="17" height="125.44"/><rect class="cls-1" x="237.61" y="126.43" width="17" height="67.57"/><rect class="cls-1" x="203.67" y="151.43" width="17" height="42.57"/><rect class="cls-1" x="169.72" y="159.37" width="17" height="34.63"/><rect class="cls-1" x="135.78" y="167.04" width="17" height="26.96"/><rect class="cls-1" x="101.83" y="172.21" width="17" height="21.79"/><rect class="cls-1" x="67.89" y="179.94" width="17" height="14.06"/><rect class="cls-1" x="33.94" y="183.74" width="17" height="10.26"/><rect class="cls-1" x="305.5" width="17" height="194"/><rect class="cls-1" y="189.1" width="17" height="4.9"/><rect class="cls-2" y="202.84" width="17" height="7.65"/><rect class="cls-2" x="33.94" y="202.84" width="17" height="7.65"/><rect class="cls-2" x="67.89" y="202.84" width="17" height="7.65"/><rect class="cls-2" x="101.83" y="202.84" width="17" height="7.65"/><rect class="cls-2" x="135.78" y="202.84" width="17" height="7.65"/><rect class="cls-2" x="169.72" y="202.84" width="17" height="7.65"/><rect class="cls-2" x="203.67" y="202.84" width="17" height="7.65"/><rect class="cls-2" x="271.56" y="202.84" width="17" height="7.65"/><rect class="cls-2" x="305.5" y="202.84" width="17" height="7.65"/><rect class="cls-2" x="237.61" y="202.84" width="17" height="7.65"/></svg>